<svg width="23" height="23" viewBox="0 0 23 23" fill="none" xmlns="http://www.w3.org/2000/svg">
<g clip-path="url(#clip0_41_1615)">
<path d="M10.5415 3.83337H3.83317C3.32484 3.83337 2.83733 4.03531 2.47788 4.39475C2.11844 4.7542 1.9165 5.24171 1.9165 5.75004V19.1667C1.9165 19.675 2.11844 20.1625 2.47788 20.522C2.83733 20.8814 3.32484 21.0834 3.83317 21.0834H17.2498C17.7582 21.0834 18.2457 20.8814 18.6051 20.522C18.9646 20.1625 19.1665 19.675 19.1665 19.1667V12.4584" stroke="black" stroke-width="2" stroke-linecap="round" stroke-linejoin="round"/>
<path d="M17.729 2.39585C18.1103 2.0146 18.6273 1.80042 19.1665 1.80042C19.7057 1.80042 20.2228 2.0146 20.604 2.39585C20.9853 2.7771 21.1994 3.29418 21.1994 3.83335C21.1994 4.37251 20.9853 4.8896 20.604 5.27085L11.4998 14.375L7.6665 15.3333L8.62484 11.5L17.729 2.39585Z" stroke="black" stroke-width="2" stroke-linecap="round" stroke-linejoin="round"/>
</g>
<defs>
<clipPath id="clip0_41_1615">
<rect width="23" height="23" fill="white"/>
</clipPath>
</defs>
</svg>
