<svg width="65" height="65" viewBox="0 0 65 65" fill="none" xmlns="http://www.w3.org/2000/svg">
<rect x="1" y="1" width="63" height="63" stroke="#8B8BAE" stroke-width="2"/>
<path d="M27.5864 20H38.5736C42.7592 20 46.16 23.4008 46.16 27.5864V38.5736C46.16 40.5856 45.3607 42.5153 43.938 43.938C42.5153 45.3607 40.5856 46.16 38.5736 46.16H27.5864C23.4008 46.16 20 42.7592 20 38.5736V27.5864C20 25.5744 20.7993 23.6447 22.222 22.222C23.6447 20.7993 25.5744 20 27.5864 20ZM27.3248 22.616C26.0759 22.616 24.8782 23.1121 23.9952 23.9952C23.1121 24.8782 22.616 26.0759 22.616 27.3248V38.8352C22.616 41.4381 24.7219 43.544 27.3248 43.544H38.8352C40.0841 43.544 41.2818 43.0479 42.1648 42.1648C43.0479 41.2818 43.544 40.0841 43.544 38.8352V27.3248C43.544 24.7219 41.4381 22.616 38.8352 22.616H27.3248ZM39.947 24.578C40.3806 24.578 40.7965 24.7503 41.1031 25.0569C41.4097 25.3635 41.582 25.7794 41.582 26.213C41.582 26.6466 41.4097 27.0625 41.1031 27.3691C40.7965 27.6757 40.3806 27.848 39.947 27.848C39.5134 27.848 39.0975 27.6757 38.7909 27.3691C38.4843 27.0625 38.312 26.6466 38.312 26.213C38.312 25.7794 38.4843 25.3635 38.7909 25.0569C39.0975 24.7503 39.5134 24.578 39.947 24.578ZM33.08 26.54C34.8145 26.54 36.478 27.229 37.7045 28.4555C38.931 29.682 39.62 31.3455 39.62 33.08C39.62 34.8145 38.931 36.478 37.7045 37.7045C36.478 38.931 34.8145 39.62 33.08 39.62C31.3455 39.62 29.682 38.931 28.4555 37.7045C27.229 36.478 26.54 34.8145 26.54 33.08C26.54 31.3455 27.229 29.682 28.4555 28.4555C29.682 27.229 31.3455 26.54 33.08 26.54ZM33.08 29.156C32.0393 29.156 31.0412 29.5694 30.3053 30.3053C29.5694 31.0412 29.156 32.0393 29.156 33.08C29.156 34.1207 29.5694 35.1188 30.3053 35.8547C31.0412 36.5906 32.0393 37.004 33.08 37.004C34.1207 37.004 35.1188 36.5906 35.8547 35.8547C36.5906 35.1188 37.004 34.1207 37.004 33.08C37.004 32.0393 36.5906 31.0412 35.8547 30.3053C35.1188 29.5694 34.1207 29.156 33.08 29.156Z" fill="#8B8BAE"/>
</svg>
