<svg width="65" height="65" viewBox="0 0 65 65" fill="none" xmlns="http://www.w3.org/2000/svg">
<rect x="1" y="1" width="63" height="63" stroke="#8B8BAE" stroke-width="2"/>
<path d="M42.3477 23.8063C41.1425 22.595 39.707 21.6346 38.1249 20.9811C36.5427 20.3276 34.8456 19.9941 33.1326 20.0001C25.955 20.0001 20.1052 25.8207 20.1052 32.9623C20.1052 35.2513 20.7099 37.4749 21.8404 39.4369L20 46.16L26.9015 44.355C28.8076 45.3883 30.9504 45.9376 33.1326 45.9376C40.3102 45.9376 46.16 40.1171 46.16 32.9754C46.16 29.5092 44.806 26.2523 42.3477 23.8063ZM33.1326 43.7402C31.187 43.7402 29.2809 43.217 27.6114 42.236L27.217 42.0006L23.1155 43.0731L24.2066 39.0968L23.9437 38.6913C22.8628 36.9739 22.2889 34.9887 22.2874 32.9623C22.2874 27.024 27.1513 22.1844 33.1194 22.1844C36.0115 22.1844 38.7327 23.3093 40.7703 25.3498C41.7792 26.349 42.5787 27.5376 43.1225 28.8466C43.6664 30.1556 43.9437 31.559 43.9384 32.9754C43.9647 38.9137 39.1007 43.7402 33.1326 43.7402ZM39.0745 35.683C38.7458 35.526 37.142 34.7412 36.8528 34.6235C36.5505 34.5188 36.3401 34.4665 36.1167 34.7804C35.8932 35.1074 35.2753 35.8399 35.0913 36.0492C34.9073 36.2715 34.7101 36.2977 34.3814 36.1277C34.0528 35.9707 33.0011 35.6176 31.7654 34.5188C30.7926 33.6556 30.1485 32.5961 29.9513 32.2691C29.7673 31.9421 29.925 31.772 30.0959 31.602C30.2405 31.4581 30.4246 31.2227 30.5823 31.0396C30.7401 30.8564 30.8058 30.7126 30.911 30.5033C31.0161 30.2809 30.9635 30.0978 30.8847 29.9408C30.8058 29.7839 30.1485 28.1881 29.8856 27.5341C29.6227 26.9063 29.3466 26.9848 29.1494 26.9717H28.5184C28.295 26.9717 27.9532 27.0502 27.6508 27.3772C27.3616 27.7042 26.5203 28.489 26.5203 30.0847C26.5203 31.6805 27.6903 33.2239 27.848 33.4332C28.0057 33.6556 30.1485 36.9255 33.4086 38.3251C34.1842 38.6652 34.7889 38.8614 35.2622 39.0053C36.0378 39.2538 36.7477 39.2145 37.3129 39.1361C37.9439 39.0445 39.2453 38.3513 39.5083 37.5926C39.7843 36.834 39.7843 36.1931 39.6923 36.0492C39.6003 35.9053 39.4031 35.8399 39.0745 35.683Z" fill="#8B8BAE"/>
</svg>
